<svg xmlns="http://www.w3.org/2000/svg" viewBox="0 0 448 512"><!--!Font Awesome Free 6.6.0 by @fontawesome - https://fontawesome.com License - https://fontawesome.com/license/free Copyright 2024 Fonticons, Inc.--><path d="M171.7 232.8A5.4 5.4 0 0 0 176.7 229.5 48.1 48.1 0 0 1 191.6 204.2c1.2-.8 1.7-2.5 1.7-4.1a4.2 4.2 0 0 0 -2.1-3.3L74.4 128.5 149 85a9.9 9.9 0 0 0 5-8.3 9.1 9.1 0 0 0 -5-8.3L126.6 55.6a9.7 9.7 0 0 0 -9.5 0l-100.2 58a9.9 9.9 0 0 0 -5 8.3V237a9.1 9.1 0 0 0 5 8.3L39.2 258.1a8.8 8.8 0 0 0 5 1.2 9.4 9.4 0 0 0 6.6-2.5 10.8 10.8 0 0 0 2.9-7V164.5L169.7 232.4A4.5 4.5 0 0 0 171.7 232.8zM323.3 377.7a12.5 12.5 0 0 0 -5 1.2l-74.5 43.1V287.9c0-2.9-2.9-5.8-6.2-4.6a53 53 0 0 1 -29 .4 4.9 4.9 0 0 0 -6.2 4.6V421.6l-74.5-43.1a8.8 8.8 0 0 0 -5-1.2 9.6 9.6 0 0 0 -9.5 9.5v26.1a9.1 9.1 0 0 0 5 8.3l100.2 57.6A8.8 8.8 0 0 0 223.5 480a11 11 0 0 0 5-1.2l100.2-57.6a9.9 9.9 0 0 0 5-8.3V386.8C332.8 382.3 328.2 377.7 323.3 377.7zM286 78a23 23 0 1 0 -23-23A23 23 0 0 0 286 78zm63.6-10.1a23 23 0 1 0 23 23A23 23 0 0 0 349.6 67.9zM412.8 151.6a23 23 0 1 0 -23-23A23 23 0 0 0 412.8 151.6zm-63.2-9.2a23 23 0 1 0 23 23A23 23 0 0 0 349.6 142.4zm-63.6 83.2a23 23 0 1 0 -23-23A23 23 0 0 0 286 225.6zm-62.1 36.4a23 23 0 1 0 -23-23A23 23 0 0 0 223.9 262zm188.9-82.4a23 23 0 1 0 23 23A23 23 0 0 0 412.8 179.6zm0 72.3a23 23 0 1 0 23 23A23 23 0 0 0 412.8 251.9z"/></svg>